<mxfile modified="2023-12-01T00:36:16.228Z" host="app.diagrams.net" agent="Mozilla/5.0 (X11; Ubuntu; Linux x86_64; rv:120.0) Gecko/20100101 Firefox/120.0" etag="JWo8JrYxQsWjSkcSz88S" version="22.1.5" type="github">
  <diagram id="Ht1M8jgEwFfnCIfOTk4-" name="Page-1">
    <mxGraphModel dx="2028" dy="1701" grid="0" gridSize="10" guides="1" tooltips="1" connect="1" arrows="1" fold="1" page="0" pageScale="1" pageWidth="1169" pageHeight="827" background="#9E9E9E" math="0" shadow="1">
      <root>
        <mxCell id="0" />
        <mxCell id="1" parent="0" />
        <mxCell id="13CA2K0NK5GTZpFBHueO-3" value="&lt;div&gt;Docker-Compose&lt;/div&gt;" style="swimlane;whiteSpace=wrap;html=1;" vertex="1" parent="1">
          <mxGeometry x="115" y="-675" width="880" height="637" as="geometry" />
        </mxCell>
        <mxCell id="13CA2K0NK5GTZpFBHueO-5" value="db&#xa;" style="swimlane;startSize=0;horizontal=1;verticalAlign=top;" vertex="1" parent="13CA2K0NK5GTZpFBHueO-3">
          <mxGeometry x="680" y="70" width="170" height="340" as="geometry" />
        </mxCell>
        <mxCell id="13CA2K0NK5GTZpFBHueO-6" value="&lt;div&gt;Redis&lt;/div&gt;" style="image;aspect=fixed;html=1;points=[];align=center;fontSize=12;image=img/lib/mscae/Cache_Redis_Product.svg;horizontal=1;verticalAlign=top;" vertex="1" parent="13CA2K0NK5GTZpFBHueO-5">
          <mxGeometry x="43" y="197" width="80" height="67.2" as="geometry" />
        </mxCell>
        <mxCell id="13CA2K0NK5GTZpFBHueO-7" value="&lt;div&gt;MariaDB&lt;/div&gt;&lt;div&gt;&lt;br&gt;&lt;/div&gt;" style="outlineConnect=0;fontColor=#232F3E;gradientColor=none;fillColor=#C925D1;strokeColor=none;dashed=0;verticalLabelPosition=bottom;verticalAlign=top;align=center;html=1;fontSize=12;fontStyle=0;aspect=fixed;pointerEvents=1;shape=mxgraph.aws4.rds_mariadb_instance;horizontal=1;" vertex="1" parent="13CA2K0NK5GTZpFBHueO-5">
          <mxGeometry x="45" y="40" width="78" height="78" as="geometry" />
        </mxCell>
        <mxCell id="13CA2K0NK5GTZpFBHueO-8" value="API&#xa;" style="swimlane;startSize=0;horizontal=1;verticalAlign=top;" vertex="1" parent="13CA2K0NK5GTZpFBHueO-3">
          <mxGeometry x="45" y="50" width="202" height="381" as="geometry" />
        </mxCell>
        <mxCell id="13CA2K0NK5GTZpFBHueO-17" value="WordPress:CLI" style="dashed=0;outlineConnect=0;html=1;align=center;labelPosition=center;verticalLabelPosition=bottom;verticalAlign=top;shape=mxgraph.webicons.wordpress_2;fillColor=#35E2EE;gradientColor=#0E4D99;horizontal=1;" vertex="1" parent="13CA2K0NK5GTZpFBHueO-8">
          <mxGeometry x="49.8" y="20" width="102.4" height="102.4" as="geometry" />
        </mxCell>
        <mxCell id="13CA2K0NK5GTZpFBHueO-9" value="&lt;div&gt;WordPress&lt;/div&gt;" style="dashed=0;outlineConnect=0;html=1;align=center;labelPosition=center;verticalLabelPosition=bottom;verticalAlign=top;shape=mxgraph.webicons.wordpress;fillColor=#35E2EE;gradientColor=#0E4D99;horizontal=1;" vertex="1" parent="13CA2K0NK5GTZpFBHueO-8">
          <mxGeometry x="49.80000000000001" y="184" width="102.4" height="102.4" as="geometry" />
        </mxCell>
        <mxCell id="13CA2K0NK5GTZpFBHueO-24" value="" style="endArrow=none;dashed=1;html=1;dashPattern=1 3;strokeWidth=2;rounded=0;horizontal=1;verticalAlign=top;" edge="1" parent="13CA2K0NK5GTZpFBHueO-8" source="13CA2K0NK5GTZpFBHueO-17" target="13CA2K0NK5GTZpFBHueO-9">
          <mxGeometry width="50" height="50" relative="1" as="geometry">
            <mxPoint x="-73.8" y="815.2893218813452" as="sourcePoint" />
            <mxPoint x="101.19999999999999" y="150.28932188134524" as="targetPoint" />
          </mxGeometry>
        </mxCell>
        <mxCell id="13CA2K0NK5GTZpFBHueO-11" value="Monit&#xa;" style="swimlane;startSize=0;horizontal=1;verticalAlign=top;" vertex="1" parent="13CA2K0NK5GTZpFBHueO-3">
          <mxGeometry x="392" y="475" width="150" height="147" as="geometry" />
        </mxCell>
        <mxCell id="13CA2K0NK5GTZpFBHueO-12" value="&lt;div&gt;New Relic&lt;/div&gt;" style="outlineConnect=0;fontColor=#232F3E;gradientColor=none;fillColor=#232F3D;strokeColor=none;dashed=0;verticalLabelPosition=bottom;verticalAlign=top;align=center;html=1;fontSize=12;fontStyle=0;aspect=fixed;pointerEvents=1;shape=mxgraph.aws4.logs;horizontal=1;" vertex="1" parent="13CA2K0NK5GTZpFBHueO-11">
          <mxGeometry x="47" y="35" width="57" height="78" as="geometry" />
        </mxCell>
        <mxCell id="13CA2K0NK5GTZpFBHueO-31" style="edgeStyle=orthogonalEdgeStyle;rounded=0;orthogonalLoop=1;jettySize=auto;html=1;dashed=1;dashPattern=12 12;horizontal=1;verticalAlign=top;" edge="1" parent="13CA2K0NK5GTZpFBHueO-3" source="13CA2K0NK5GTZpFBHueO-17" target="13CA2K0NK5GTZpFBHueO-7">
          <mxGeometry relative="1" as="geometry">
            <Array as="points">
              <mxPoint x="596" y="121" />
              <mxPoint x="596" y="121" />
            </Array>
          </mxGeometry>
        </mxCell>
        <mxCell id="13CA2K0NK5GTZpFBHueO-32" style="edgeStyle=orthogonalEdgeStyle;rounded=0;orthogonalLoop=1;jettySize=auto;html=1;dashed=1;dashPattern=12 12;horizontal=1;verticalAlign=top;" edge="1" parent="13CA2K0NK5GTZpFBHueO-3" source="13CA2K0NK5GTZpFBHueO-9" target="13CA2K0NK5GTZpFBHueO-11">
          <mxGeometry relative="1" as="geometry">
            <Array as="points">
              <mxPoint x="146" y="566" />
            </Array>
          </mxGeometry>
        </mxCell>
        <mxCell id="13CA2K0NK5GTZpFBHueO-33" style="edgeStyle=orthogonalEdgeStyle;rounded=0;orthogonalLoop=1;jettySize=auto;html=1;dashed=1;dashPattern=12 12;horizontal=1;verticalAlign=top;" edge="1" parent="13CA2K0NK5GTZpFBHueO-3" source="13CA2K0NK5GTZpFBHueO-7" target="13CA2K0NK5GTZpFBHueO-17">
          <mxGeometry relative="1" as="geometry">
            <Array as="points">
              <mxPoint x="586" y="161" />
              <mxPoint x="586" y="161" />
            </Array>
          </mxGeometry>
        </mxCell>
        <mxCell id="13CA2K0NK5GTZpFBHueO-34" style="edgeStyle=orthogonalEdgeStyle;rounded=0;orthogonalLoop=1;jettySize=auto;html=1;dashed=1;dashPattern=12 12;horizontal=1;verticalAlign=top;" edge="1" parent="13CA2K0NK5GTZpFBHueO-3" source="13CA2K0NK5GTZpFBHueO-9" target="13CA2K0NK5GTZpFBHueO-6">
          <mxGeometry relative="1" as="geometry">
            <Array as="points">
              <mxPoint x="597" y="285" />
              <mxPoint x="597" y="285" />
            </Array>
          </mxGeometry>
        </mxCell>
        <mxCell id="13CA2K0NK5GTZpFBHueO-35" style="edgeStyle=orthogonalEdgeStyle;rounded=0;orthogonalLoop=1;jettySize=auto;html=1;dashed=1;dashPattern=12 12;horizontal=1;verticalAlign=top;" edge="1" parent="13CA2K0NK5GTZpFBHueO-3" source="13CA2K0NK5GTZpFBHueO-6" target="13CA2K0NK5GTZpFBHueO-9">
          <mxGeometry relative="1" as="geometry">
            <Array as="points">
              <mxPoint x="315" y="314" />
              <mxPoint x="315" y="314" />
            </Array>
          </mxGeometry>
        </mxCell>
        <mxCell id="13CA2K0NK5GTZpFBHueO-30" style="edgeStyle=orthogonalEdgeStyle;rounded=0;orthogonalLoop=1;jettySize=auto;html=1;shape=arrow;horizontal=1;verticalAlign=top;" edge="1" parent="1" source="13CA2K0NK5GTZpFBHueO-21">
          <mxGeometry relative="1" as="geometry">
            <mxPoint x="114.35294117647072" y="-335.1176470588234" as="targetPoint" />
          </mxGeometry>
        </mxCell>
        <mxCell id="13CA2K0NK5GTZpFBHueO-21" value="&lt;div&gt;Makefile&lt;/div&gt;" style="shape=image;html=1;verticalAlign=top;verticalLabelPosition=bottom;labelBackgroundColor=#ffffff;imageAspect=0;aspect=fixed;image=https://cdn3.iconfinder.com/data/icons/UltimateGnome/128x128/mimetypes/text-x-makefile.png;horizontal=1;" vertex="1" parent="1">
          <mxGeometry x="-92" y="-372" width="128" height="128" as="geometry" />
        </mxCell>
      </root>
    </mxGraphModel>
  </diagram>
</mxfile>
